<?xml version="1.0" encoding="UTF-8"?>
<svg id="Layer_2" data-name="Layer 2" xmlns="http://www.w3.org/2000/svg" xmlns:xlink="http://www.w3.org/1999/xlink" viewBox="0 0 1280.22 182.69">
  <defs>
    <style>
      .cls-1 {
        fill: url(#linear-gradient);
      }

      .cls-1, .cls-2, .cls-3, .cls-4, .cls-5, .cls-6, .cls-7, .cls-8, .cls-9 {
        fill-rule: evenodd;
      }

      .cls-2 {
        fill: url(#linear-gradient-5);
        opacity: .5;
      }

      .cls-2, .cls-3, .cls-4, .cls-5 {
        isolation: isolate;
      }

      .cls-3 {
        fill: url(#linear-gradient-6);
      }

      .cls-3, .cls-4, .cls-5 {
        opacity: .75;
      }

      .cls-4 {
        fill: url(#linear-gradient-7);
      }

      .cls-5 {
        fill: url(#linear-gradient-8);
      }

      .cls-10 {
        letter-spacing: 0em;
      }

      .cls-11 {
        letter-spacing: .03em;
      }

      .cls-6 {
        fill: #90a078;
      }

      .cls-12 {
        fill: #d1d5db;
        font-family: Nunito-SemiBold, Nunito;
        font-size: 153.2px;
        font-variation-settings: 'wght' 600;
        font-weight: 600;
      }

      .cls-7 {
        fill: url(#linear-gradient-3);
      }

      .cls-8 {
        fill: url(#linear-gradient-2);
      }

      .cls-9 {
        fill: url(#linear-gradient-4);
      }
    </style>
    <linearGradient id="linear-gradient" x1="52.58" y1="-.9" x2="336" y2="-.9" gradientTransform="translate(0 51.14) scale(1 -1)" gradientUnits="userSpaceOnUse">
      <stop offset="0" stop-color="#90a078"/>
      <stop offset=".21" stop-color="#8b9a73"/>
      <stop offset=".46" stop-color="#7c8c64"/>
      <stop offset=".73" stop-color="#65744d"/>
      <stop offset="1" stop-color="#46552f"/>
    </linearGradient>
    <linearGradient id="linear-gradient-2" x1="68.04" y1="9.35" x2="317.32" y2="9.35" gradientTransform="translate(0 51.14) scale(1 -1)" gradientUnits="userSpaceOnUse">
      <stop offset="0" stop-color="#fff" stop-opacity=".5"/>
      <stop offset=".15" stop-color="#fff" stop-opacity=".48"/>
      <stop offset=".34" stop-color="#fff" stop-opacity=".42"/>
      <stop offset=".54" stop-color="#fff" stop-opacity=".33"/>
      <stop offset=".75" stop-color="#fff" stop-opacity=".2"/>
      <stop offset=".97" stop-color="#fff" stop-opacity=".03"/>
      <stop offset="1" stop-color="#fff" stop-opacity="0"/>
    </linearGradient>
    <linearGradient id="linear-gradient-3" x1="88.63" y1="20.3" x2="291.68" y2="20.3" xlink:href="#linear-gradient-2"/>
    <linearGradient id="linear-gradient-4" x1="110.14" y1="28.83" x2="267.57" y2="28.83" xlink:href="#linear-gradient-2"/>
    <linearGradient id="linear-gradient-5" x1="52.66" y1="-12.96" x2="336.46" y2="-12.96" gradientTransform="translate(0 51.14) scale(1 -1)" gradientUnits="userSpaceOnUse">
      <stop offset="0" stop-color="#acbb93"/>
      <stop offset=".23" stop-color="#afbe98"/>
      <stop offset=".51" stop-color="#bbc7a6"/>
      <stop offset=".81" stop-color="#cdd6be"/>
      <stop offset="1" stop-color="#dce2d1"/>
    </linearGradient>
    <linearGradient id="linear-gradient-6" x1=".15" y1="-88.52" x2="74.7" y2="-88.52" xlink:href="#linear-gradient-5"/>
    <linearGradient id="linear-gradient-7" x1="189.2" y1="-95" x2="252.57" y2="-95" xlink:href="#linear-gradient-5"/>
    <linearGradient id="linear-gradient-8" x1="338.6" y1="-21.3" x2="429.68" y2="-21.3" xlink:href="#linear-gradient-5"/>
  </defs>
  <g id="Layer_1-2" data-name="Layer 1">
    <g>
      <path class="cls-1" d="M336,21.05c-1.53,1.53-3.14,3.06-4.67,4.59-.23,.23-.54,.46-.77,.69-3.98,3.83-8.11,7.42-12.4,11.02-14.01,11.71-29.16,22.04-45.39,30.69-37.66,20.21-80.82,31.69-126.52,31.69h-5.66c-5.43-.15-10.87-.38-16.23-.84-11.94-.92-23.65-2.68-35.05-5.2-5.82-1.22-11.63-2.68-17.37-4.36-6.58-1.84-13.01-3.98-19.36-6.35,4.9-4.9,10.03-9.64,15.38-14.16,.15-.08,.23-.23,.38-.31,6.43-5.51,13.16-10.79,20.21-15.61,3.21-2.22,6.43-4.36,9.72-6.51,3.9-2.45,7.81-4.82,11.86-7.12,7.27-4.13,14.69-7.88,22.27-11.33,2.07-.92,4.21-1.84,6.28-2.76,31.92-13.39,66.89-20.82,103.71-20.82,4.52,0,9.03,.08,13.47,.31,3.9,.23,7.81,.46,11.63,.84,8.11,.77,16.15,1.84,24.11,3.37,2.91,.54,5.82,1.15,8.65,1.76,5.74,1.22,11.4,2.68,16.99,4.36,6.35,1.84,12.63,3.9,18.75,6.2v-.15Z"/>
      <path class="cls-8" d="M317.32,14.85c-.84,.69-1.61,1.38-2.45,2.07-14.01,11.71-29.16,22.04-45.39,30.69-37.66,20.21-80.82,31.69-126.52,31.69h-5.66c-5.43-.08-10.87-.38-16.23-.84-11.94-.92-23.65-2.68-35.05-5.2-5.89-1.22-11.63-2.68-17.37-4.36-.23,0-.38-.08-.61-.15,.15-.08,.23-.23,.38-.31,6.43-5.51,13.16-10.79,20.21-15.61,3.21-2.22,6.43-4.36,9.72-6.51,3.9-2.45,7.81-4.82,11.86-7.12,7.27-4.13,14.69-7.88,22.27-11.33,2.07-.92,4.21-1.84,6.28-2.76,31.92-13.39,66.89-20.82,103.71-20.82,4.52,0,9.03,.08,13.47,.31,3.9,.23,7.81,.46,11.63,.84,8.11,.77,16.15,1.84,24.11,3.37,2.91,.54,5.82,1.15,8.65,1.76,5.74,1.22,11.4,2.68,16.99,4.36v-.08Z"/>
      <path class="cls-7" d="M291.68,8.8c-8.73,6.12-17.83,11.71-27.32,16.84-37.66,20.21-80.82,31.69-126.52,31.69h-5.66c-5.43-.08-10.87-.38-16.23-.84-9.26-.77-18.37-1.91-27.32-3.6,3.21-2.22,6.43-4.36,9.72-6.51,3.9-2.45,7.81-4.82,11.86-7.12,7.27-4.13,14.69-7.88,22.27-11.33,2.07-.92,4.21-1.84,6.28-2.76,31.92-13.39,66.89-20.82,103.71-20.82,4.52,0,9.03,.08,13.47,.31,3.9,.23,7.81,.46,11.63,.84,8.11,.77,16.15,1.84,24.11,3.37v-.08Z"/>
      <path class="cls-9" d="M267.57,5.43c-1.91,1.07-3.83,2.14-5.74,3.21-37.66,20.21-80.82,31.69-126.52,31.69h-5.66c-5.43-.08-10.87-.38-16.23-.84-1.07-.08-2.14-.15-3.29-.31,7.27-4.13,14.7-7.88,22.27-11.33,2.07-.92,4.21-1.84,6.28-2.76,31.92-13.39,66.89-20.82,103.71-20.82,4.52,0,9.03,.08,13.47,.31,3.9,.23,7.81,.46,11.63,.84h.08Z"/>
      <path class="cls-6" d="M410.54,5.05s-.31-.15-.46-.23c-2.14-.92-4.36-1.68-6.58-2.37h-.38c-5.59-1.61-11.48-2.45-17.53-2.45-13.01,0-25.1,3.9-35.13,10.64-.31,.23-.61,.46-1,.69-4.44,3.14-8.8,6.43-13.01,10.03-1.68,1.45-3.37,2.91-5.05,4.44-.23,.23-.54,.46-.77,.69-3.98,3.83-8.11,7.42-12.4,11.02-14.01,11.71-29.16,22.04-45.39,30.69-37.66,20.21-80.82,31.69-126.52,31.69h-5.66c-5.43-.15-10.87-.38-16.23-.84-11.94-.92-23.65-2.68-35.05-5.2-5.82-1.22-11.63-2.68-17.37-4.36-6.58-1.84-13.01-3.98-19.36-6.35-6.74-2.53-13.39-5.28-19.82-8.34-.61-.31-1.22-.54-1.84-.84-.92-.31-1.91-.54-2.98-.54-5.13,0-9.26,4.13-9.26,9.26,0,2.76,1.22,5.2,3.14,6.96,.69,.46,1.38,.92,2.07,1.38,4.44,2.98,8.95,5.74,13.62,8.42,11.79,6.81,24.11,12.78,36.97,17.76-16.15,19.36-39.34,32.68-65.59,35.97-.54,0-1.07,.15-1.68,.23-4.21,.92-7.27,4.59-7.27,9.03,0,3.83,2.3,7.04,5.59,8.5,.31,.15,.61,.23,.92,.31,10.79,3.9,22.5,5.97,34.67,5.97,28.47,0,54.19-11.56,72.71-30.31,4.67-4.67,8.88-9.87,12.55-15.38,3.6,.61,7.19,1.15,10.79,1.61,11.33,1.45,22.81,2.22,34.59,2.22,28.09,0,55.18-4.29,80.59-12.32-13.7,18.14-33.29,31.69-55.95,37.58-.31,.08-.61,.15-.99,.23-3.75,1.15-6.43,4.67-6.43,8.8,0,3.83,2.3,7.04,5.59,8.5,.54,.23,1.15,.38,1.76,.54,9.03,2.6,18.6,4.06,28.55,4.06,54.8,0,99.5-42.94,102.33-97.05,3.75-2.68,7.5-5.51,11.1-8.34,10.26,7.19,22.66,11.33,36.13,11.33,11.86,0,22.88-3.21,32.38-8.88,4.29-2.6,8.27-5.66,11.79-9.11,1.76-1.68,3.37-3.44,4.9-5.36,.46-.46,.84-.92,1.15-1.45,4.29-5.74,7.04-12.63,7.65-20.21,.08-1.07,.15-2.14,.15-3.21,0-15.54-9.03-28.93-22.2-35.28l.23-.08Zm-20.05,6.43c5.13,0,9.26,4.13,9.26,9.26s-4.13,9.26-9.26,9.26-9.26-4.13-9.26-9.26,4.13-9.26,9.26-9.26Z"/>
      <path class="cls-2" d="M336.38,21.2C224.79,167.16,52.66,82.89,52.66,82.89c6.35,2.37,12.78,4.44,19.36,6.35,5.66,1.68,11.48,3.14,17.37,4.36,11.4,2.53,23.11,4.21,35.05,5.2,5.36,.46,10.79,.77,16.23,.84h5.66c45.77,0,88.86-11.48,126.52-31.69,16.23-8.65,31.38-18.98,45.39-30.69,4.29-3.52,8.42-7.19,12.4-11.02,.23-.23,.46-.46,.77-.69,1.68-1.53,3.29-2.98,5.05-4.44l-.08,.08Z"/>
      <path class="cls-3" d="M74.7,117.03C66.51,165.4,.15,162.26,.15,162.26c0-4.44,3.06-8.11,7.27-9.03,.54,0,1.07-.15,1.68-.23,26.25-3.37,49.44-16.69,65.59-35.97Z"/>
      <path class="cls-4" d="M252.57,122.84c-.77,38.5-63.37,46.61-63.37,46.61,0-4.13,2.68-7.65,6.43-8.8,.38,0,.69-.15,1-.23,22.65-5.89,42.25-19.44,55.95-37.58Z"/>
      <path class="cls-5" d="M429.68,56.33c-2.76,5.05-9.87,16.38-24.03,24.34-2.68,1.45-14.54,7.88-30.92,7.88-9.18,0-16.23-1.99-19.52-3.06-5.97-1.91-11.56-4.75-16.61-8.27,7.58,2.6,26.56,7.88,49.75,2.22,21.74-5.28,35.59-17.37,41.33-23.04v-.08Z"/>
    </g>
    <text class="cls-12" transform="translate(503.77 131.71) scale(.95 1)"><tspan class="cls-11" x="0" y="0">Pickup L</tspan><tspan class="cls-10" x="625.65" y="0">L</tspan><tspan class="cls-11" x="709.14" y="0">C</tspan></text>
  </g>
</svg>