<svg width="2142" height="904" viewBox="0 0 2142 904" fill="none" xmlns="http://www.w3.org/2000/svg">
<g clip-path="url(#clip0_871_1782)">
<path fill-rule="evenodd" clip-rule="evenodd" d="M1662.97 104.905C1655.39 112.479 1647.43 120.054 1639.85 127.628C1638.71 128.764 1637.2 129.9 1636.06 131.036C1616.35 149.972 1595.89 167.772 1574.67 185.572C1505.31 243.516 1430.27 294.643 1349.93 337.438C1163.47 437.419 949.726 494.227 723.475 494.227C714 494.227 704.905 494.227 695.43 494.227C668.522 493.47 641.615 492.333 615.086 490.061C555.965 485.517 497.981 476.806 441.513 464.308C412.71 458.249 383.908 451.053 355.484 442.721C322.892 433.632 291.057 423.028 259.602 411.288C283.857 387.05 309.249 363.569 335.777 341.225C336.535 340.846 336.914 340.089 337.672 339.71C369.506 312.442 402.857 286.311 437.723 262.452C453.64 251.469 469.557 240.865 485.854 230.261C505.182 218.142 524.51 206.401 544.596 195.04C580.599 174.589 617.36 156.032 654.879 138.99C665.112 134.445 675.723 129.9 685.956 125.356C844.37 58.3226 1017.56 21.5869 1199.85 21.5869C1222.21 21.5869 1244.57 21.9656 1266.55 23.1018C1285.88 24.2379 1305.21 25.3741 1324.16 27.2677C1364.33 31.0549 1404.12 36.3569 1443.54 43.9313C1457.94 46.5823 1472.34 49.612 1486.36 52.6418C1514.79 58.7013 1542.83 65.8969 1570.5 74.2287C1601.95 83.318 1633.03 93.5433 1663.35 104.905H1662.97Z" fill="url(#paint0_linear_871_1782)"/>
<path style="mix-blend-mode:soft-light" fill-rule="evenodd" clip-rule="evenodd" d="M1570.5 74.2287C1566.33 77.6372 1562.54 81.0456 1558.37 84.4541C1489.02 142.398 1413.98 193.525 1333.63 236.32C1147.18 336.302 933.43 393.109 707.179 393.109C697.704 393.109 688.608 393.109 679.134 393.109C652.226 392.731 625.319 391.216 598.79 388.943C539.669 384.399 481.685 375.688 425.217 363.191C396.035 357.131 367.612 349.935 339.188 341.604C338.051 341.604 337.293 341.225 336.156 340.846C336.914 340.468 337.293 339.71 338.051 339.331C369.886 312.064 403.236 285.932 438.102 262.073C454.019 251.09 469.936 240.486 486.233 229.882C505.561 217.763 524.889 206.023 544.975 194.661C580.978 174.21 617.739 155.653 655.258 138.611C665.491 134.066 676.102 129.522 686.335 124.977C844.37 58.3226 1017.56 21.5869 1199.85 21.5869C1222.21 21.5869 1244.57 21.9656 1266.55 23.1018C1285.88 24.2379 1305.21 25.3741 1324.16 27.2677C1364.33 31.0549 1404.12 36.3569 1443.54 43.9313C1457.94 46.5823 1472.34 49.612 1486.36 52.6418C1514.79 58.7013 1542.83 65.8969 1570.5 74.2287V74.2287Z" fill="url(#paint1_linear_871_1782)"/>
<path style="mix-blend-mode:soft-light" fill-rule="evenodd" clip-rule="evenodd" d="M1443.54 44.31C1400.33 74.6074 1355.24 102.254 1308.24 127.628C1121.78 227.61 908.038 284.417 681.787 284.417C672.312 284.417 663.217 284.417 653.742 284.417C626.835 284.039 599.927 282.524 573.398 280.251C527.542 276.464 482.443 270.783 438.102 262.452C454.019 251.469 469.936 240.865 486.233 230.261C505.561 218.142 524.889 206.401 544.975 195.04C580.978 174.589 617.739 156.032 655.258 138.99C665.491 134.445 676.102 129.9 686.335 125.356C844.37 58.3226 1017.56 21.5869 1199.85 21.5869C1222.21 21.5869 1244.57 21.9656 1266.55 23.1018C1285.88 24.2379 1305.21 25.3741 1324.16 27.2677C1364.33 31.0549 1404.12 36.3569 1443.54 43.9313V44.31Z" fill="url(#paint2_linear_871_1782)"/>
<path style="mix-blend-mode:soft-light" fill-rule="evenodd" clip-rule="evenodd" d="M1324.16 27.6464C1314.68 32.9485 1305.21 38.2505 1295.74 43.5526C1109.28 143.534 895.532 200.342 669.28 200.342C659.806 200.342 650.71 200.342 641.236 200.342C614.328 199.963 587.421 198.448 560.892 196.176C555.586 195.797 550.28 195.418 544.596 194.661C580.599 174.21 617.36 155.653 654.879 138.611C665.112 134.066 675.723 129.522 685.956 124.977C844.37 58.3226 1017.56 21.5869 1199.85 21.5869C1222.21 21.5869 1244.57 21.9656 1266.55 23.1018C1285.88 24.2379 1305.21 25.3741 1324.16 27.2677V27.6464Z" fill="url(#paint3_linear_871_1782)"/>
<path fill-rule="evenodd" clip-rule="evenodd" d="M2032.1 25.7527C2032.1 25.7527 2030.58 24.9953 2029.82 24.6166C2019.21 20.0719 2008.22 16.2848 1997.23 12.8763C1997.23 12.8763 1997.23 12.8763 1996.85 12.8763C1996.47 12.8763 1995.71 12.8763 1995.33 12.8763C1967.67 4.92322 1938.49 0.757324 1908.55 0.757324C1844.12 0.757324 1784.24 20.0719 1734.6 53.3991C1733.08 54.5353 1731.56 55.6714 1729.67 56.8076C1707.69 72.335 1686.09 88.6199 1665.24 106.42C1656.9 113.615 1648.57 120.811 1640.23 128.385C1639.09 129.521 1637.58 130.658 1636.44 131.794C1616.73 150.73 1596.27 168.529 1575.04 186.329C1505.69 244.273 1430.65 295.4 1350.31 338.195C1163.85 438.177 950.105 494.984 723.854 494.984C714.379 494.984 705.284 494.984 695.809 494.984C668.901 494.227 641.994 493.091 615.465 490.818C556.344 486.274 498.36 477.563 441.892 465.066C413.089 459.006 384.287 451.81 355.863 443.479C323.271 434.389 291.436 423.785 259.981 412.045C226.631 399.547 193.659 385.914 161.825 370.765C158.793 369.25 155.761 368.114 152.729 366.599C148.182 365.084 143.255 363.948 137.949 363.948C112.557 363.948 92.0925 384.399 92.0925 409.773C92.0925 423.407 98.1562 435.526 107.631 444.236C111.042 446.508 114.452 448.781 117.863 451.053C139.844 465.823 162.204 479.457 185.322 492.712C243.685 526.418 304.701 555.958 368.37 580.575C288.405 676.39 173.573 742.287 43.5829 758.572C40.9301 758.572 38.2772 759.33 35.2454 759.708C14.4014 764.253 -0.757812 782.431 -0.757812 804.397C-0.757812 823.333 10.6116 839.239 26.9078 846.435C28.4237 847.192 29.9396 847.571 31.4556 847.95C84.8919 867.264 142.876 877.49 203.134 877.49C344.115 877.49 471.452 820.303 563.166 727.517C586.284 704.415 607.128 678.663 625.319 651.395C643.131 654.425 660.943 657.076 678.755 659.348C734.844 666.544 791.691 670.331 850.054 670.331C989.14 670.331 1123.3 649.123 1249.12 609.357C1181.28 699.113 1084.26 766.146 972.086 795.308C970.57 795.686 969.054 796.065 967.159 796.444C948.589 802.125 935.325 819.546 935.325 839.996C935.325 858.932 946.694 874.839 962.991 882.034C965.643 883.17 968.675 883.928 971.707 884.685C1016.43 897.562 1063.8 904.757 1113.07 904.757C1384.42 904.757 1605.74 692.296 1619.76 424.543C1638.33 411.288 1656.9 397.275 1674.72 383.263C1725.5 418.862 1786.89 439.313 1853.6 439.313C1912.34 439.313 1966.91 423.407 2013.9 395.381C2035.13 382.505 2054.83 367.356 2072.27 350.314C2080.98 341.982 2088.94 333.272 2096.52 323.804C2098.8 321.531 2100.69 319.259 2102.21 316.608C2123.43 288.204 2137.07 254.12 2140.11 216.627C2140.48 211.325 2140.86 206.023 2140.86 200.72C2140.86 123.841 2096.14 57.565 2030.96 26.1314L2032.1 25.7527ZM1932.8 57.565C1958.19 57.565 1978.66 78.0158 1978.66 103.39C1978.66 128.764 1958.19 149.215 1932.8 149.215C1907.41 149.215 1886.95 128.764 1886.95 103.39C1886.95 78.0158 1907.41 57.565 1932.8 57.565Z" fill="#90A078"/>
<path style="mix-blend-mode:multiply" opacity="0.5" fill-rule="evenodd" clip-rule="evenodd" d="M1664.86 105.662C1112.31 827.877 260.36 410.909 260.36 410.909C291.815 422.649 323.65 432.875 356.242 442.343C384.287 450.674 413.089 457.87 442.271 463.929C498.739 476.427 556.723 484.759 615.844 489.682C642.373 491.955 669.28 493.469 696.188 493.848C705.662 493.848 714.758 493.848 724.232 493.848C950.863 493.848 1164.23 437.04 1350.69 337.059C1431.03 294.264 1506.07 243.137 1575.42 185.193C1596.65 167.772 1617.11 149.593 1636.82 130.658C1637.96 129.521 1639.09 128.385 1640.61 127.249C1648.95 119.675 1656.9 112.479 1665.62 105.283L1664.86 105.662Z" fill="url(#paint4_linear_871_1782)"/>
<path style="mix-blend-mode:multiply" opacity="0.75" fill-rule="evenodd" clip-rule="evenodd" d="M369.127 579.438C328.576 818.788 0 803.261 0 803.261C0 781.295 15.1592 763.117 36.0032 758.572C38.656 758.572 41.3089 757.815 44.3408 757.436C174.331 740.772 289.162 674.875 369.127 579.438Z" fill="url(#paint5_linear_871_1782)"/>
<path style="mix-blend-mode:multiply" opacity="0.75" fill-rule="evenodd" clip-rule="evenodd" d="M1249.88 608.6C1246.09 799.095 936.083 839.239 936.083 839.239C936.083 818.788 949.347 801.367 967.917 795.686C969.812 795.686 971.328 794.929 972.844 794.55C1085.02 765.389 1182.04 698.356 1249.88 608.6Z" fill="url(#paint6_linear_871_1782)"/>
<path style="mix-blend-mode:multiply" opacity="0.75" fill-rule="evenodd" clip-rule="evenodd" d="M2126.84 279.494C2113.2 304.489 2077.95 360.54 2007.84 399.926C1994.58 407.122 1935.83 438.934 1854.73 438.934C1809.25 438.934 1774.39 429.087 1758.09 423.785C1728.53 414.317 1700.87 400.305 1675.85 382.884C1713.37 395.76 1807.36 421.892 1922.19 393.867C2029.82 367.735 2098.42 307.898 2126.84 279.873V279.494Z" fill="url(#paint7_linear_871_1782)"/>
</g>
<defs>
<linearGradient id="paint0_linear_871_1782" x1="260.36" y1="257.907" x2="1662.97" y2="257.907" gradientUnits="userSpaceOnUse">
<stop stop-color="#90A078"/>
<stop offset="0.21" stop-color="#8B9A73"/>
<stop offset="0.46" stop-color="#7C8C64"/>
<stop offset="0.73" stop-color="#65744D"/>
<stop offset="1" stop-color="#46552F"/>
</linearGradient>
<linearGradient id="paint1_linear_871_1782" x1="336.156" y1="207.537" x2="1570.5" y2="207.537" gradientUnits="userSpaceOnUse">
<stop stop-color="white" stop-opacity="0.5"/>
<stop offset="0.15" stop-color="white" stop-opacity="0.48"/>
<stop offset="0.34" stop-color="white" stop-opacity="0.42"/>
<stop offset="0.54" stop-color="white" stop-opacity="0.33"/>
<stop offset="0.75" stop-color="white" stop-opacity="0.2"/>
<stop offset="0.97" stop-color="white" stop-opacity="0.03"/>
<stop offset="1" stop-color="white" stop-opacity="0"/>
</linearGradient>
<linearGradient id="paint2_linear_871_1782" x1="438.102" y1="153.002" x2="1443.54" y2="153.002" gradientUnits="userSpaceOnUse">
<stop stop-color="white" stop-opacity="0.5"/>
<stop offset="0.15" stop-color="white" stop-opacity="0.48"/>
<stop offset="0.34" stop-color="white" stop-opacity="0.42"/>
<stop offset="0.54" stop-color="white" stop-opacity="0.33"/>
<stop offset="0.75" stop-color="white" stop-opacity="0.2"/>
<stop offset="0.97" stop-color="white" stop-opacity="0.03"/>
<stop offset="1" stop-color="white" stop-opacity="0"/>
</linearGradient>
<linearGradient id="paint3_linear_871_1782" x1="544.596" y1="110.964" x2="1324.16" y2="110.964" gradientUnits="userSpaceOnUse">
<stop stop-color="white" stop-opacity="0.5"/>
<stop offset="0.15" stop-color="white" stop-opacity="0.48"/>
<stop offset="0.34" stop-color="white" stop-opacity="0.42"/>
<stop offset="0.54" stop-color="white" stop-opacity="0.33"/>
<stop offset="0.75" stop-color="white" stop-opacity="0.2"/>
<stop offset="0.97" stop-color="white" stop-opacity="0.03"/>
<stop offset="1" stop-color="white" stop-opacity="0"/>
</linearGradient>
<linearGradient id="paint4_linear_871_1782" x1="260.36" y1="318.123" x2="1664.86" y2="318.123" gradientUnits="userSpaceOnUse">
<stop stop-color="#ACBB93"/>
<stop offset="0.23" stop-color="#AFBE98"/>
<stop offset="0.51" stop-color="#BBC7A6"/>
<stop offset="0.81" stop-color="#CDD6BE"/>
<stop offset="1" stop-color="#DCE2D1"/>
</linearGradient>
<linearGradient id="paint5_linear_871_1782" x1="0" y1="691.539" x2="369.127" y2="691.539" gradientUnits="userSpaceOnUse">
<stop stop-color="#ACBB93"/>
<stop offset="0.23" stop-color="#AFBE98"/>
<stop offset="0.51" stop-color="#BBC7A6"/>
<stop offset="0.81" stop-color="#CDD6BE"/>
<stop offset="1" stop-color="#DCE2D1"/>
</linearGradient>
<linearGradient id="paint6_linear_871_1782" x1="936.083" y1="723.73" x2="1249.88" y2="723.73" gradientUnits="userSpaceOnUse">
<stop stop-color="#ACBB93"/>
<stop offset="0.23" stop-color="#AFBE98"/>
<stop offset="0.51" stop-color="#BBC7A6"/>
<stop offset="0.81" stop-color="#CDD6BE"/>
<stop offset="1" stop-color="#DCE2D1"/>
</linearGradient>
<linearGradient id="paint7_linear_871_1782" x1="1675.85" y1="359.025" x2="2126.84" y2="359.025" gradientUnits="userSpaceOnUse">
<stop stop-color="#ACBB93"/>
<stop offset="0.23" stop-color="#AFBE98"/>
<stop offset="0.51" stop-color="#BBC7A6"/>
<stop offset="0.81" stop-color="#CDD6BE"/>
<stop offset="1" stop-color="#DCE2D1"/>
</linearGradient>
<clipPath id="clip0_871_1782">
<rect width="2142" height="904" fill="white"/>
</clipPath>
</defs>
</svg>
