<svg width="72" height="36" viewBox="0 0 72 36" fill="none" xmlns="http://www.w3.org/2000/svg">
<path fill-rule="evenodd" clip-rule="evenodd" d="M1.056 29.5978C-1.7299 20.6004 1.17118 3.38745 7.70139 1.7539C16.9303 -0.554826 27.4499 2.67983 34.5747 7.24146C33.9123 8.06894 33.1422 9.13432 32.2816 10.3249L32.0491 10.6464C30.0471 13.4145 27.5103 16.8826 24.4031 20.1247C18.5358 26.2468 10.8175 31.3835 1.056 29.5978ZM1.92129 31.7589C2.96293 33.7808 4.44569 35.0282 6.41201 35.0106C19.8571 34.8898 26.1882 27.0149 32.8349 18.7474C34.9247 16.148 37.0458 13.5097 39.4289 11.0615C38.5103 10.1488 37.4353 9.24333 36.233 8.37109C36.2266 8.37894 36.2202 8.38683 36.2138 8.39475C35.5689 9.19138 34.8022 10.252 33.8903 11.5133L33.6697 11.8185C31.6679 14.5862 29.0599 18.1562 25.847 21.5086C20.0331 27.5749 12.0689 33.0952 1.92129 31.7589Z" fill="#6B7954"/>
<path fill-rule="evenodd" clip-rule="evenodd" d="M40.4028 12.1234C38.3236 14.27 36.4675 16.633 34.8819 19.0836C32.3171 23.048 33.0874 25.562 34.9285 27.8994C37.8239 31.5737 41.1643 33.6101 47.9668 32.7153C53.2555 32.0197 57.0258 31.2866 62.9436 27.4741C65.8987 25.5703 68.3429 23.1936 69.8963 20.3695C66.3419 22.2043 63.4352 22.2193 60.9512 21.8515C60.4048 21.7706 60.0275 21.2622 60.1084 20.7159C60.1893 20.1695 60.6978 19.7922 61.2441 19.8731C63.7571 20.2452 66.7177 20.1979 70.6454 17.6124C70.7935 17.5149 70.9579 17.4619 71.123 17.4501C71.6207 15.78 71.8258 13.9836 71.6801 12.0647C71.2229 6.04992 68.0313 2.70526 62.8357 2.1152C61.1108 1.91932 59.1654 2.02701 57.0258 2.44133C50.733 3.65962 45.0188 7.35793 40.4028 12.1234ZM65.548 8.27038C65.548 9.60033 64.4698 10.6785 63.1399 10.6785C61.8099 10.6785 60.7318 9.60033 60.7318 8.27038C60.7318 6.94042 61.8099 5.86228 63.1399 5.86228C64.4698 5.86228 65.548 6.94042 65.548 8.27038Z" fill="#6B7954"/>
</svg>
