<svg width="179" height="266" viewBox="0 0 179 266" fill="none" xmlns="http://www.w3.org/2000/svg">
<path d="M96.5011 28.0767C75.0861 35.3066 48.6964 55.7325 23.0273 97.7049C19.4462 103.56 11.7975 105.404 5.9434 101.822C0.0892977 98.2395 -1.75334 90.5889 1.82775 84.7333C29.3396 39.7477 59.7759 14.24 88.5536 4.52434C117.649 -5.29864 144.783 1.33744 161.875 19.935C178.8 38.3503 183.887 66.312 173.946 95.2839C164.01 124.239 139.263 154.205 96.422 179.593C90.5179 183.091 82.896 181.14 79.398 175.235C75.9001 169.329 77.8508 161.705 83.755 158.206C123.025 134.935 142.922 109.122 150.44 87.214C157.952 65.3228 153.303 47.3375 143.58 36.758C134.024 26.3608 117.598 20.9542 96.5011 28.0767Z" fill="#F9F4F1"/>
<path d="M51.258 85.7814C58.1206 85.7814 63.6838 91.346 63.6838 98.2103L63.6838 253.571C63.6838 260.435 58.1206 266 51.258 266C44.3955 266 38.8323 260.435 38.8323 253.571L38.8323 98.2103C38.8323 91.346 44.3955 85.7814 51.258 85.7814Z" fill="#F9F4F1"/>
</svg>
