<svg width="181" height="103" viewBox="0 0 181 103" fill="none" xmlns="http://www.w3.org/2000/svg">
<path d="M37.1988 10.8718C28.9438 13.6713 18.7712 21.5806 8.87645 37.8331C7.49603 40.1005 4.54764 40.8141 2.29103 39.4271C0.034422 38.0401 -0.675868 35.0777 0.704552 32.8103C11.3097 15.391 23.0421 5.51397 34.1352 1.75191C45.3509 -2.05173 55.8102 0.51788 62.3988 7.71919C68.9229 14.8499 70.8839 25.6772 67.0517 36.8956C63.2217 48.1074 53.6826 59.7109 37.1683 69.5415C34.8924 70.8963 31.9543 70.1408 30.6059 67.854C29.2576 65.5672 30.0095 62.6151 32.2854 61.2603C47.4232 52.2492 55.093 42.2541 57.9909 33.7708C60.8866 25.2942 59.0944 18.3299 55.3464 14.2334C51.6629 10.2074 45.3311 8.11383 37.1988 10.8718Z" fill="#5A6943"/>
<path d="M19.7587 33.2161C22.404 33.2161 24.5485 35.3708 24.5485 38.0288L24.5485 98.1873C24.5485 100.845 22.404 103 19.7587 103C17.1133 103 14.9689 100.845 14.9689 98.1873L14.9689 38.0288C14.9689 35.3708 17.1133 33.2161 19.7587 33.2161Z" fill="#5A6943"/>
<path d="M74.9614 85.2526C74.2541 85.2526 73.6984 85.0337 73.2942 84.5958C72.89 84.158 72.688 83.5518 72.688 82.7771V62.6196C72.688 61.8113 72.89 61.2051 73.2942 60.8009C73.6984 60.3631 74.2541 60.1442 74.9614 60.1442C75.7023 60.1442 76.2749 60.3631 76.679 60.8009C77.0832 61.2051 77.2853 61.8113 77.2853 62.6196V82.7771C77.2853 83.5518 77.0832 84.158 76.679 84.5958C76.3086 85.0337 75.736 85.2526 74.9614 85.2526ZM74.9614 54.688C74.052 54.688 73.3279 54.4522 72.789 53.9807C72.2838 53.4755 72.0312 52.8188 72.0312 52.0104C72.0312 51.1348 72.2838 50.478 72.789 50.0402C73.3279 49.5686 74.052 49.3329 74.9614 49.3329C75.9381 49.3329 76.6622 49.5686 77.1337 50.0402C77.6389 50.478 77.8915 51.1348 77.8915 52.0104C77.8915 52.8188 77.6389 53.4755 77.1337 53.9807C76.6622 54.4522 75.9381 54.688 74.9614 54.688ZM93.3155 85.4547C90.8232 85.4547 88.6677 84.9326 86.849 83.8886C85.0302 82.8108 83.6325 81.312 82.6558 79.3923C81.6791 77.4388 81.1907 75.1486 81.1907 72.5216C81.1907 70.5681 81.4602 68.8168 81.999 67.2675C82.5716 65.7182 83.3799 64.4047 84.424 63.3269C85.4681 62.2155 86.7311 61.3735 88.213 60.8009C89.7286 60.2284 91.4294 59.9421 93.3155 59.9421C94.4943 59.9421 95.7405 60.1273 97.054 60.4978C98.3675 60.8683 99.58 61.4745 100.691 62.3165C101.062 62.586 101.298 62.9059 101.399 63.2764C101.5 63.6132 101.5 63.9668 101.399 64.3373C101.331 64.7078 101.163 65.0278 100.894 65.2972C100.658 65.533 100.338 65.6677 99.9336 65.7014C99.5632 65.735 99.159 65.6172 98.7212 65.3477C97.9128 64.7415 97.054 64.3036 96.1446 64.0342C95.269 63.7648 94.427 63.63 93.6186 63.63C92.3725 63.63 91.261 63.8321 90.2843 64.2363C89.3413 64.6404 88.533 65.2298 87.8594 66.0045C87.2194 66.7454 86.7311 67.6716 86.3943 68.7831C86.0575 69.8608 85.8891 71.1238 85.8891 72.5721C85.8891 75.4349 86.5627 77.6914 87.9099 79.3418C89.2571 80.9584 91.16 81.7667 93.6186 81.7667C94.427 81.7667 95.269 81.6488 96.1446 81.4131C97.0203 81.1436 97.8792 80.7058 98.7212 80.0996C99.159 79.8301 99.5632 79.7291 99.9336 79.7964C100.304 79.8301 100.607 79.9817 100.843 80.2511C101.112 80.4869 101.281 80.79 101.348 81.1605C101.416 81.4973 101.382 81.8509 101.247 82.2214C101.146 82.5919 100.91 82.895 100.54 83.1308C99.4621 83.9391 98.2833 84.5285 97.0035 84.899C95.7236 85.2694 94.4943 85.4547 93.3155 85.4547ZM106.392 85.3536C105.685 85.3536 105.129 85.1516 104.725 84.7474C104.321 84.3432 104.119 83.7538 104.119 82.9792V51.3537C104.119 50.579 104.321 50.0065 104.725 49.636C105.129 49.2318 105.685 49.0298 106.392 49.0298C107.133 49.0298 107.706 49.2318 108.11 49.636C108.514 50.0065 108.716 50.579 108.716 51.3537V71.2586H108.817L118.719 61.6092C119.224 61.104 119.679 60.7167 120.083 60.4473C120.487 60.1778 121.009 60.0431 121.649 60.0431C122.289 60.0431 122.778 60.2115 123.114 60.5483C123.451 60.8514 123.62 61.2556 123.62 61.7608C123.62 62.2323 123.384 62.7038 122.912 63.1754L112.404 73.3804V71.107L123.872 82.1709C124.344 82.6424 124.563 83.1308 124.529 83.636C124.529 84.1412 124.344 84.5622 123.973 84.899C123.636 85.2021 123.182 85.3536 122.609 85.3536C121.936 85.3536 121.38 85.2189 120.942 84.9495C120.538 84.68 120.066 84.259 119.527 83.6865L108.817 73.5825H108.716V82.9792C108.716 84.5622 107.942 85.3536 106.392 85.3536ZM136.543 85.4547C134.556 85.4547 132.889 85.0842 131.542 84.3432C130.228 83.6023 129.252 82.5077 128.612 81.0594C127.972 79.6112 127.652 77.7925 127.652 75.6033V62.367C127.652 61.5924 127.837 61.0198 128.207 60.6494C128.612 60.2452 129.184 60.0431 129.925 60.0431C130.666 60.0431 131.239 60.2452 131.643 60.6494C132.047 61.0198 132.249 61.5924 132.249 62.367V75.6033C132.249 77.6914 132.67 79.2407 133.512 80.2511C134.354 81.2278 135.684 81.7162 137.503 81.7162C139.524 81.7162 141.157 81.0426 142.404 79.6954C143.683 78.3482 144.323 76.5632 144.323 74.3403V62.367C144.323 61.5924 144.509 61.0198 144.879 60.6494C145.283 60.2452 145.856 60.0431 146.597 60.0431C147.338 60.0431 147.91 60.2452 148.314 60.6494C148.719 61.0198 148.921 61.5924 148.921 62.367V82.9792C148.921 84.5622 148.18 85.3536 146.698 85.3536C145.957 85.3536 145.384 85.1516 144.98 84.7474C144.61 84.3432 144.424 83.7538 144.424 82.9792V78.584L145.081 79.4428C144.408 81.3962 143.313 82.895 141.797 83.9391C140.315 84.9495 138.564 85.4547 136.543 85.4547ZM156.571 94.4472C155.864 94.4472 155.308 94.2452 154.904 93.841C154.5 93.4368 154.297 92.8643 154.297 92.1233V62.367C154.297 61.5924 154.5 61.0198 154.904 60.6494C155.308 60.2452 155.864 60.0431 156.571 60.0431C157.312 60.0431 157.868 60.2452 158.238 60.6494C158.642 61.0198 158.844 61.5924 158.844 62.367V66.9644L158.289 66.055C158.827 64.2026 159.888 62.7207 161.471 61.6092C163.054 60.4978 164.957 59.9421 167.18 59.9421C169.369 59.9421 171.272 60.4641 172.889 61.5082C174.505 62.5186 175.768 63.9837 176.678 65.9034C177.587 67.7895 178.042 70.0461 178.042 72.6731C178.042 75.2665 177.587 77.5399 176.678 79.4933C175.802 81.4131 174.539 82.895 172.889 83.9391C171.272 84.9495 169.369 85.4547 167.18 85.4547C164.991 85.4547 163.105 84.899 161.522 83.7875C159.939 82.6761 158.878 81.211 158.339 79.3923H158.895V92.1233C158.895 92.8643 158.693 93.4368 158.289 93.841C157.884 94.2452 157.312 94.4472 156.571 94.4472ZM166.119 81.8172C167.567 81.8172 168.83 81.4636 169.908 80.7563C171.02 80.049 171.878 79.0218 172.485 77.6746C173.091 76.3274 173.394 74.6602 173.394 72.6731C173.394 69.7093 172.737 67.4527 171.424 65.9034C170.11 64.3542 168.342 63.5795 166.119 63.5795C164.637 63.5795 163.341 63.9332 162.229 64.6404C161.151 65.314 160.309 66.3244 159.703 67.6716C159.131 69.0188 158.844 70.686 158.844 72.6731C158.844 75.637 159.501 77.9104 160.815 79.4933C162.128 81.0426 163.896 81.8172 166.119 81.8172Z" fill="#5A6943"/>
</svg>
