<?xml version="1.0" encoding="UTF-8" standalone="no"?>
<!DOCTYPE svg PUBLIC "-//W3C//DTD SVG 1.1//EN" "http://www.w3.org/Graphics/SVG/1.1/DTD/svg11.dtd">
<svg width="100%" height="100%" viewBox="0 0 512 512" version="1.1" xmlns="http://www.w3.org/2000/svg" xmlns:xlink="http://www.w3.org/1999/xlink" xml:space="preserve" xmlns:serif="http://www.serif.com/" style="fill-rule:evenodd;clip-rule:evenodd;stroke-linejoin:round;stroke-miterlimit:2;">
    <g transform="matrix(0.862374,-2.01902e-18,-2.52615e-18,0.862374,35.2454,35.3833)">
        <path d="M379.52,183.3C377.94,184.879 376.282,186.458 374.703,188.037C374.466,188.274 374.15,188.511 373.913,188.748C369.807,192.696 365.543,196.407 361.122,200.118C346.672,212.199 331.037,222.859 314.298,231.782C275.449,252.627 230.915,264.472 183.775,264.472L177.932,264.472C172.326,264.314 166.72,264.077 161.192,263.603C148.874,262.655 136.793,260.839 125.028,258.234C119.027,256.97 113.026,255.47 107.104,253.733C100.313,251.838 93.681,249.627 87.127,247.179C92.18,242.126 97.471,237.23 102.998,232.571C103.156,232.492 103.235,232.334 103.393,232.255C110.026,226.57 116.974,221.122 124.239,216.147C127.555,213.858 130.871,211.647 134.267,209.436C138.294,206.909 142.321,204.461 146.506,202.092C154.007,197.828 161.666,193.959 169.483,190.406C171.615,189.459 173.826,188.511 175.958,187.564C208.885,173.745 244.97,166.086 282.95,166.086C287.609,166.086 292.268,166.165 296.847,166.402C300.874,166.639 304.901,166.876 308.849,167.271C317.219,168.06 325.51,169.166 333.722,170.745C336.723,171.298 339.723,171.929 342.645,172.561C348.567,173.824 354.41,175.325 360.174,177.062C366.728,178.957 373.203,181.089 379.52,183.458L379.52,183.3Z" style="fill:rgb(94,87,77);stroke:black;stroke-width:9.28px;"/>
    </g>
    <g transform="matrix(0.071661,-1.67775e-19,-2.09917e-19,0.071661,-6001.03,-7996.42)">
        <path d="M89726.5,114088L89723.7,114089C89887.1,114168 89999.2,114334 89999.2,114527C89999.2,114540 89998.3,114553 89997.3,114567C89989.7,114661 89955.5,114746 89902.3,114818C89898.5,114824 89893.8,114830 89888.1,114836C89869.1,114859 89849.1,114881 89827.3,114902C89783.5,114945 89734.1,114983 89680.9,115015C89563.1,115086 89425.5,115110 89279,115126C88884.2,115167 88766.9,114990 88689.5,115189C88567.9,115500 88102.6,116293 87422.2,116293C87189.9,116293 87087,116254 87046,116236C87004.9,116219 86976.6,116178 86976.6,116131C86976.6,116080 87009.8,116036 87056.4,116022C87061.2,116021 87065,116020 87068.8,116019C87350,115946 87593.3,115777 87763.4,115552C87447.9,115652 87111.5,115705 86762.8,115705C86616.5,115705 86473.9,115696 86333.3,115678C86288.6,115672 86244,115665 86199.3,115658C86153.7,115726 86101.4,115791 86043.5,115849C85813.5,116081 85494.2,116225 85140.8,116225C84989.7,116225 84844.3,116199 84710.3,116151C84706.5,116150 84702.7,116149 84698.9,116147C84658,116129 84629.5,116089 84629.5,116042C84629.5,115986 84667.5,115941 84719.8,115929C84727.4,115928 84734.1,115927 84740.7,115927C85066.6,115886 85354.6,115720 85555.1,115480C85395.4,115418 85242.4,115344 85096.1,115259C85038.1,115226 84982.1,115192 84927,115155C84918.4,115149 84909.9,115144 84901.3,115138C84877.5,115116 84862.3,115086 84862.3,115051C84862.3,114988 84913.7,114936 84977.3,114936C84990.6,114936 85003,114939 85014.4,114943C85022,114947 85029.6,114950 85037.2,114954C85117,114992 85199.7,115026 85283.3,115057C85362.2,115087 85442,115113 85523.7,115136C85595,115157 85667.2,115175 85739.4,115190C85881,115221 86026.4,115243 86174.6,115255C86241.1,115260 86308.6,115263 86376,115265L86446.4,115265C87013.6,115265 87549.6,115123 88017.1,114872C88218.5,114764 88406.7,114636 88580.6,114491C88633.8,114446 88685.1,114401 88734.5,114354C88737.4,114351 88741.2,114348 88744,114345C88764.9,114326 88785.8,114308 88806.7,114290C88859,114246 88913.1,114205 88968.3,114166C88973,114163 88976.8,114160 88980.6,114157C89105.1,114074 89255.2,114025 89416.8,114025C89491.8,114025 89565,114036 89634.4,114056L89639.1,114056C89666.7,114064 89694.2,114074 89720.8,114085L89726.5,114088Z" style="fill:rgb(144,160,120);stroke:black;stroke-width:111.64px;stroke-linecap:round;stroke-miterlimit:1.5;"/>
    </g>
    <g transform="matrix(0.0623694,-1.46022e-19,-1.82699e-19,0.0623694,-5179.92,-6930.39)">
        <path d="M89477.6,114168C89541.2,114168 89592.6,114219 89592.6,114283C89592.6,114303 89587.4,114322 89578.4,114338C89558.9,114374 89521.1,114398 89477.6,114398C89413.9,114398 89362.6,114346 89362.6,114283C89362.6,114219 89413.9,114168 89477.6,114168Z"/>
    </g>
</svg>
